<svg data-name="Layer 1" xmlns="http://www.w3.org/2000/svg" viewBox="0 0 798 199.52"><defs><linearGradient id="a" x1="76.84" y1="65.89" x2="44.41" y2="104.54" gradientTransform="matrix(1 0 0 -1 0 202)" gradientUnits="userSpaceOnUse"><stop offset="0" stop-color="#ce5dcb"/><stop offset=".21" stop-color="#c558cc"/><stop offset=".55" stop-color="#ac4acf"/><stop offset=".98" stop-color="#8534d4"/><stop offset="1" stop-color="#8333d4"/></linearGradient><linearGradient id="b" x1="78.02" y1="109.87" x2="147.69" y2="109.87" gradientTransform="matrix(1 0 0 -1 0 202)" gradientUnits="userSpaceOnUse"><stop offset=".02" stop-color="#ff5667"/><stop offset=".66" stop-color="#fc8b82"/><stop offset="1" stop-color="#fba28e"/></linearGradient><linearGradient id="c" x1="-.01" y1="134.92" x2="95.89" y2="134.92" gradientTransform="matrix(1 0 0 -1 0 202)" gradientUnits="userSpaceOnUse"><stop offset="0" stop-color="#00b874"/><stop offset=".51" stop-color="#29d3a2"/><stop offset=".68" stop-color="#53dfb6"/><stop offset="1" stop-color="#9ff4d9"/></linearGradient><linearGradient id="d" x1="65.35" y1="69.57" x2="161.25" y2="69.57" gradientTransform="matrix(1 0 0 -1 0 202)" gradientUnits="userSpaceOnUse"><stop offset="0" stop-color="#fcd77e"/><stop offset=".52" stop-color="#fea500"/><stop offset="1" stop-color="#ff5b00"/></linearGradient></defs><path d="M13.53 134.17a46.2 46.2 0 0065.35 0l1.73-1.73c9-9-9-56.32 0-65.35z" fill="url(#a)"/><path d="M82.35 65.36l-1.73 1.73c-9 9 9 56.32 0 65.34l67.07-67.07a46.21 46.21 0 00-65.34 0" fill="url(#b)"/><path d="M13.53 68.83a46.19 46.19 0 000 65.34l68.83-68.83a46.21 46.21 0 000-65.34z" fill="url(#c)"/><path d="M78.88 134.17a46.22 46.22 0 000 65.35l68.83-68.83a46.19 46.19 0 000-65.34z" fill="url(#d)"/><path d="M415.45 100.12a51.62 51.62 0 00-99.11 28.94v.13c.88 2.94 2.29 6.7 2.32 6.76 4.39 10.28 11.74 18.12 22.47 24A51.68 51.68 0 00406 147.22l.42-.52a51.83 51.83 0 004.56-6.81 8.8 8.8 0 00-15.35-8.59 33.68 33.68 0 01-8.54 10 5.81 5.81 0 00-.74.68 34.22 34.22 0 01-36.74 2.56 33.51 33.51 0 01-12.7-12.26L409.53 111a8.77 8.77 0 005.92-10.88zM366 80.51a34.21 34.21 0 0128.59 15.6l.52.83-63.28 18.56a34.22 34.22 0 0134.15-35zm39.41 66zm103.3 3.07h-48.07l53.75-79a4.86 4.86 0 00-4-7.6H442a8.23 8.23 0 100 16.46h45.8l-53.74 79a4.85 4.85 0 004 7.59h70.64a8.23 8.23 0 000-16.45zm106.49 0h-48.06l53.75-79a4.85 4.85 0 00-4-7.59h-68.36a8.23 8.23 0 000 16.46h45.8l-53.74 79a4.85 4.85 0 004 7.59h70.61a8.23 8.23 0 000-16.46zm47.46-131.11a8.24 8.24 0 00-8.23 8.23v131.41a8.23 8.23 0 0016.46 0V26.7a8.24 8.24 0 00-8.23-8.23zm134.99 81.65a51.27 51.27 0 00-6.16-13.49 51.62 51.62 0 00-57.9-21.51 51.63 51.63 0 00-35.06 63.94v.14c.88 2.93 2.29 6.69 2.32 6.76 4.39 10.28 11.74 18.12 22.47 24a51.7 51.7 0 0064.79-12.71l.43-.55a51.66 51.66 0 004.55-6.8 8.8 8.8 0 00-15.35-8.59 33.7 33.7 0 01-8.54 10 6 6 0 00-.75.68 34.22 34.22 0 01-36.74 2.56A33.6 33.6 0 01719 132.3l72.7-21.3a8.77 8.77 0 005.95-10.88zm-49.48-19.61a34.21 34.21 0 0128.59 15.6l.52.83L714 115.5a34.22 34.22 0 0134.15-35zm-459.4 39.77a27.44 27.44 0 00-10.47-8.84c-7.36-3.75-16.92-5.47-26.07-6.9l-1.45-.22c-6.43-1-13.08-2-17.35-4.2-3.23-1.64-4.38-3.48-4.38-7.07 0-7 7.56-12.19 17.6-12.19 12 0 18.66 3.5 26.15 8.07a8.86 8.86 0 109.2-15.12 76 76 0 00-14.42-7.23 61.22 61.22 0 00-21-3.43c-9.24 0-17.88 2.8-24.33 7.91a27.71 27.71 0 00-11 22c0 10.3 4.88 18.22 14.11 22.89 6.78 3.43 14.84 4.68 22.63 5.89l1.43.22c20 3.13 25.75 6 25.75 12.56 0 8.19-8.2 13.55-20.89 13.66h-.46a41.33 41.33 0 01-25.35-8c-.68-.46-1.26-.87-1.84-1.23a8.86 8.86 0 10-9.38 15l1 .65.24.16A59.1 59.1 0 00253.9 166h.61c11-.1 20.48-3.06 27.37-8.58a28.75 28.75 0 0011.12-22.8 24.91 24.91 0 00-4.23-14.34z" fill="#fff"/></svg>